<svg width="26" height="24" viewBox="0 0 26 24" xmlns="http://www.w3.org/2000/svg">
<path d="M20.1317 20.1317C18.5234 21.74 16.4743 22.8353 14.2435 23.279C12.0128 23.7228 9.70049 23.495 7.59914 22.6246C5.49779 21.7542 3.70174 20.2802 2.4381 18.3891C1.17446 16.4979 0.5 14.2745 0.5 12C0.5 9.72552 1.17446 7.50211 2.4381 5.61094C3.70173 3.71978 5.49779 2.24579 7.59914 1.37539C9.70049 0.504978 12.0128 0.277239 14.2435 0.720969C16.4743 1.1647 18.5234 2.25997 20.1317 3.86827" stroke="currentColor" fill="none" />
<path d="M21.3154 15.7894L25.1049 11.9999M25.1049 11.9999L21.3154 8.21045M25.1049 11.9999H15" stroke="currentColor" stroke-linecap="round" stroke-linejoin="round" fill="none" />
</svg>
