<svg width="30" height="30" viewBox="0 0 30 30" xmlns="http://www.w3.org/2000/svg">
<path fill-rule="evenodd" clip-rule="evenodd" d="M29.3125 8.185C29.52 7.5025 29.3125 7 28.3188 7H25.0375C24.2025 7 23.8175 7.43375 23.6087 7.9125C23.6087 7.9125 21.94 11.9075 19.5763 14.5025C18.8113 15.255 18.4638 15.4938 18.0463 15.4938C17.8375 15.4938 17.5238 15.255 17.5238 14.5713V8.185C17.5238 7.365 17.2938 7 16.5988 7H11.4388C10.9175 7 10.6037 7.38 10.6037 7.74125C10.6037 8.5175 11.7863 8.6975 11.9075 10.8825V15.63C11.9075 16.6713 11.7162 16.86 11.2987 16.86C10.1862 16.86 7.48 12.8462 5.87375 8.25375C5.5625 7.36 5.2475 7 4.40875 7H1.125C0.1875 7 0 7.43375 0 7.9125C0 8.765 1.1125 13 5.18125 18.6013C7.89375 22.4263 11.7125 24.5 15.1912 24.5C17.2775 24.5 17.535 24.04 17.535 23.2462V20.355C17.535 19.4338 17.7325 19.25 18.3938 19.25C18.8813 19.25 19.715 19.49 21.6625 21.3337C23.8875 23.52 24.2538 24.5 25.5063 24.5H28.7875C29.725 24.5 30.195 24.04 29.925 23.13C29.6275 22.225 28.565 20.9112 27.1563 19.3525C26.3913 18.465 25.2438 17.5088 24.895 17.03C24.4088 16.4163 24.5475 16.1425 24.895 15.5962C24.895 15.5962 28.895 10.0637 29.3112 8.185H29.3125Z" fill="currentColor"/>
</svg>
