<svg width="30" height="30" viewBox="0 0 30 30" xmlns="http://www.w3.org/2000/svg">
<path d="M29.3748 8.13409C29.2049 7.52813 28.874 6.97952 28.4173 6.54659C27.9477 6.10034 27.372 5.78113 26.7448 5.61909C24.3973 5.00034 14.9923 5.00034 14.9923 5.00034C11.0715 4.95573 7.15158 5.15193 3.25479 5.58784C2.62753 5.76186 2.053 6.0882 1.58229 6.53784C1.11979 6.98284 0.784795 7.53159 0.609795 8.13284C0.189411 10.3975 -0.0148401 12.697 -0.000205084 15.0003C-0.0152051 17.3016 0.188545 19.6003 0.609795 21.8678C0.781045 22.4666 1.11479 23.0128 1.57854 23.4541C2.04229 23.8953 2.61979 24.2141 3.25479 24.3828C5.63354 25.0003 14.9923 25.0003 14.9923 25.0003C18.9181 25.045 22.843 24.8488 26.7448 24.4128C27.372 24.2508 27.9477 23.9316 28.4173 23.4853C28.8798 23.0441 29.2085 22.4953 29.3735 21.8978C29.8049 19.634 30.0146 17.3336 29.9998 15.0291C30.0322 12.7148 29.8228 10.4035 29.3748 8.13284V8.13409ZM12.0023 19.2803V10.7216L19.8273 15.0016L12.0023 19.2803Z" fill="currentColor"/>
</svg>
