<svg width="198" height="61" viewBox="0 0 198 61" fill="none" xmlns="http://www.w3.org/2000/svg">
<path d="M17.7792 50.8333L33.3881 35.7528C41.4847 28.0431 43.0707 22.7903 43.0707 17.0292C43.0707 6.52361 34.8906 0 22.2031 0C12.604 0 4.5074 3.64305 0 9.82778L7.5958 15.7583C10.8511 11.5222 15.6089 9.57361 21.2849 9.57361C28.4634 9.57361 32.1361 12.7083 32.1361 18.1306C32.1361 21.4347 31.1344 24.9083 25.4584 30.4153L2.2537 52.7819V60.1528H45.3244V50.8333H17.7792Z" fill="black"/>
<path d="M75.716 61C89.6556 61 100.173 49.9861 100.173 30.5C100.173 11.0139 89.6556 0 75.716 0C61.86 0 51.3427 11.0139 51.3427 30.5C51.3427 49.9861 61.86 61 75.716 61ZM75.716 51.4264C67.7864 51.4264 62.2773 44.8181 62.2773 30.5C62.2773 16.1819 67.7864 9.57361 75.716 9.57361C83.7292 9.57361 89.2382 16.1819 89.2382 30.5C89.2382 44.8181 83.7292 51.4264 75.716 51.4264Z" fill="black"/>
<path d="M121.872 50.8333L137.481 35.7528C145.578 28.0431 147.164 22.7903 147.164 17.0292C147.164 6.52361 138.984 0 126.296 0C116.697 0 108.601 3.64305 104.093 9.82778L111.689 15.7583C114.944 11.5222 119.702 9.57361 125.378 9.57361C132.557 9.57361 136.229 12.7083 136.229 18.1306C136.229 21.4347 135.228 24.9083 129.552 30.4153L106.347 52.7819V60.1528H149.418V50.8333H121.872Z" fill="black"/>
<path d="M170.455 50.8333L186.064 35.7528C194.16 28.0431 195.746 22.7903 195.746 17.0292C195.746 6.52361 187.566 0 174.879 0C165.28 0 157.183 3.64305 152.676 9.82778L160.271 15.7583C163.527 11.5222 168.285 9.57361 173.961 9.57361C181.139 9.57361 184.812 12.7083 184.812 18.1306C184.812 21.4347 183.81 24.9083 178.134 30.4153L154.929 52.7819V60.1528H198V50.8333H170.455Z" fill="black"/>
</svg>
