<svg width="112" height="123" viewBox="0 0 112 123" fill="none" xmlns="http://www.w3.org/2000/svg">
<path fill-rule="evenodd" clip-rule="evenodd" d="M55.782 0C78.0198 0 97.2161 12.9857 106.176 31.7714C104.924 31.9672 103.756 32.2868 102.671 32.7096C102.313 30.6982 101.767 28.8172 100.941 27.0995C98.5105 22.0389 93.4499 17.8141 85.8565 17.8141C80.3146 17.8141 74.2602 20.4383 71.4896 26.7963C68.7183 20.4383 62.6638 17.8141 57.1227 17.8141C54.3138 17.8141 51.8521 18.3924 49.7412 19.3771C49.5271 18.7695 49.2864 18.1783 49.0162 17.6047C46.5529 12.5582 41.5246 8.31911 33.9308 8.31911C28.3896 8.31911 22.3343 10.9435 19.5644 17.3018C19.141 16.3302 18.6402 15.446 18.077 14.6449C28.0049 5.55161 41.2433 0 55.782 0ZM73.6334 95.0809L73.6321 95.0848C73.0612 93.0268 73.5846 90.5379 75.6555 87.7665C78.3596 84.1482 84.8055 80.202 91.6031 80.0528V41.5315C91.6031 38.2021 91.72 35.5721 91.09 33.2554C89.7713 28.4074 86.1641 27.7049 84.5219 27.7049C82.059 27.7049 78.878 29.0167 77.6468 33.2554C77.031 35.3744 77.1336 37.3935 77.1336 41.5315V78.977H65.8453V41.5315C65.8453 38.1003 65.9315 35.5806 65.332 33.2554C64.0846 28.4156 60.714 27.7049 58.6621 27.7049C57.0199 27.7049 53.4134 28.4074 52.0944 33.2554C51.4635 35.5724 51.5813 37.9988 51.5813 41.5315V103.31C51.482 107.376 51.3813 111.405 47.6393 115.088C40.5818 121.255 30.9939 121.713 25.732 118.735C29.3196 124.185 41.8188 125.227 50.4921 117.646C52.8746 115.564 53.9283 113.749 54.3568 111.309C54.8304 111.322 55.3055 111.328 55.782 111.328C64.9954 111.328 73.6858 109.097 81.3434 105.15C86.6273 106.078 93.4793 104.696 98.861 99.9928C102.382 96.9146 103.001 94.4196 102.988 89.6315C102.53 91.9373 101.468 93.6956 99.174 95.7012C95.8962 98.5658 92.0722 100.199 88.3905 100.828C88.2337 100.855 88.0648 100.875 87.911 100.905C85.8248 101.211 82.4549 101.258 80.4538 100.602C76.9847 99.7175 74.3772 97.7663 73.6334 95.0809ZM109.741 41.5054C110.93 46.0265 111.565 50.7713 111.565 55.6641C111.565 66.1638 108.649 75.9831 103.585 84.3633V74.8078H103.574V55.2654C103.574 51.7331 103.456 49.3063 104.087 46.9897C105.197 42.9101 107.925 41.7658 109.741 41.5054ZM27.6897 103.761C11.1289 94.1075 0 76.1836 0 55.6641C0 42.527 4.56381 30.4546 12.1914 20.934C12.689 21.6687 13.1105 22.5945 13.4067 23.7608C14.0227 26.0822 13.9201 28.6052 13.9201 32.0363V79.0202H25.2082V67.6994H39.6773V80.3791V99.4517C35.164 99.6471 30.8353 101.488 27.6897 103.761ZM25.2082 57.2359V32.0363C25.2082 27.8986 25.1057 25.8798 25.7213 23.7608C26.9534 19.5219 30.1344 18.2101 32.5966 18.2101C34.2388 18.2101 37.8303 18.9165 39.1644 23.7608C39.7802 26.0822 39.6773 28.7061 39.6773 32.0363V41.8341V57.2359H25.2082Z" fill="#2B2A29"/>
</svg>
