<svg width="78" height="86" viewBox="0 0 78 86" fill="none" xmlns="http://www.w3.org/2000/svg">
<path fill-rule="evenodd" clip-rule="evenodd" d="M38.8482 0C54.3352 0 67.7041 9.07942 73.944 22.2142C73.0721 22.3511 72.2584 22.5745 71.5033 22.8702C71.254 21.4638 70.8731 20.1486 70.2984 18.9476C68.6056 15.4093 65.0812 12.4554 59.7929 12.4554C55.9334 12.4554 51.7169 14.2902 49.7874 18.7356C47.8574 14.2902 43.6409 12.4554 39.7819 12.4554C37.8257 12.4554 36.1113 12.8597 34.6412 13.5482C34.4921 13.1234 34.3244 12.71 34.1362 12.309C32.4208 8.78053 28.9189 5.81662 23.6304 5.81662C19.7713 5.81662 15.5542 7.65156 13.6252 12.0972C13.3303 11.4178 12.9815 10.7997 12.5893 10.2395C19.5034 3.88162 28.723 0 38.8482 0ZM51.2804 66.4793L51.2795 66.482C50.8819 65.0431 51.2464 63.3029 52.6887 61.3652C54.5718 58.8353 59.0609 56.0762 63.795 55.9719V29.0383C63.795 26.7104 63.8764 24.8715 63.4377 23.2518C62.5193 19.8621 60.0072 19.3709 58.8635 19.3709C57.1483 19.3709 54.9329 20.2881 54.0755 23.2518C53.6466 24.7333 53.718 26.145 53.718 29.0383V55.2197H45.8565V29.0383C45.8565 26.6392 45.9166 24.8775 45.4991 23.2518C44.6304 19.8678 42.283 19.3709 40.8539 19.3709C39.7103 19.3709 37.1986 19.8621 36.28 23.2518C35.8407 24.8718 35.9227 26.5683 35.9227 29.0383V72.2327C35.8535 75.076 35.7834 77.8928 33.1774 80.4678C28.2623 84.78 21.5851 85.1003 17.9205 83.0183C20.419 86.8283 29.1238 87.5572 35.1642 82.2567C36.8234 80.8009 37.5572 79.5316 37.8556 77.8261C38.1855 77.8348 38.5163 77.8392 38.8482 77.8392C45.2646 77.8392 51.3169 76.2795 56.6498 73.5192C60.3297 74.1684 65.1017 73.2022 68.8496 69.9136C71.3017 67.7614 71.7328 66.0169 71.7241 62.6692C71.4049 64.2813 70.6653 65.5108 69.0676 66.9131C66.7848 68.9159 64.1217 70.0579 61.5577 70.4979C61.4485 70.5166 61.3309 70.5304 61.2238 70.5514C59.7708 70.7654 57.4239 70.7986 56.0303 70.3399C53.6143 69.7212 51.7984 68.3569 51.2804 66.4793ZM76.427 29.0201C77.2547 32.1811 77.6968 35.4986 77.6968 38.9196C77.6968 46.2609 75.6664 53.1264 72.1393 58.9857V52.3046H72.1315V38.6408C72.1315 36.1711 72.05 34.4743 72.4888 32.8546C73.262 30.0022 75.1624 29.2021 76.427 29.0201ZM19.2839 72.5481C7.75047 65.7987 0 53.2666 0 38.9196C0 29.7343 3.17837 21.2935 8.49043 14.6367C8.83701 15.1504 9.13055 15.7977 9.3368 16.6132C9.7658 18.2364 9.69436 20.0004 9.69436 22.3993V55.2499H17.5557V47.3345H27.6324V56.2V69.5353C24.4892 69.6719 21.4746 70.9591 19.2839 72.5481ZM17.5557 40.0186V22.3993C17.5557 19.5063 17.4844 18.0948 17.913 16.6132C18.7711 13.6495 20.9865 12.7322 22.7012 12.7322C23.8449 12.7322 26.3461 13.2262 27.2752 16.6132C27.704 18.2364 27.6324 20.0709 27.6324 22.3993V29.2499V40.0186H17.5557Z" fill="white"/>
</svg>
