<svg width="0" height="0" class="hidden">
  <symbol xmlns="http://www.w3.org/2000/svg" viewBox="0 0 34 34" id="ic_arrow">
    <path d="M25.5 21.25L17 12.75L8.5 21.25" stroke="currentColor" stroke-width="3" stroke-linecap="round" stroke-linejoin="round" fill="none"></path>
  </symbol>
  <symbol xmlns="http://www.w3.org/2000/svg" viewBox="0 0 12 24" id="ic_facebook">
    <path d="M2.98071 24V12.7385H0.00292969V8.68382H2.98071V5.2206C2.98071 2.49917 4.73969 0 8.79276 0C10.4338 0 11.6472 0.15732 11.6472 0.15732L11.5516 3.9437C11.5516 3.9437 10.3141 3.93166 8.96364 3.93166C7.50204 3.93166 7.26787 4.60522 7.26787 5.72316V8.68382H11.6678L11.4764 12.7385H7.26787V24H2.98071Z" fill="currentColor"></path>
  </symbol>
  <symbol xmlns="http://www.w3.org/2000/svg" viewBox="0 0 30 30" id="ic_instagram">
    <path fill-rule="evenodd" clip-rule="evenodd" d="M9.33125 1.3325C10.7975 1.265 11.265 1.25 15 1.25C18.735 1.25 19.2025 1.26625 20.6675 1.3325C22.1325 1.39875 23.1325 1.6325 24.0075 1.97125C24.9238 2.3175 25.755 2.85875 26.4425 3.55875C27.1425 4.245 27.6825 5.075 28.0275 5.9925C28.3675 6.8675 28.6 7.8675 28.6675 9.33C28.735 10.7988 28.75 11.2663 28.75 15C28.75 18.735 28.7338 19.2025 28.6675 20.6688C28.6013 22.1313 28.3675 23.1313 28.0275 24.0063C27.6825 24.9239 27.1416 25.7553 26.4425 26.4425C25.755 27.1425 24.9238 27.6825 24.0075 28.0275C23.1325 28.3675 22.1325 28.6 20.67 28.6675C19.2025 28.735 18.735 28.75 15 28.75C11.265 28.75 10.7975 28.7338 9.33125 28.6675C7.86875 28.6013 6.86875 28.3675 5.99375 28.0275C5.07615 27.6825 4.24478 27.1416 3.5575 26.4425C2.85798 25.7558 2.31664 24.9249 1.97125 24.0075C1.6325 23.1325 1.4 22.1325 1.3325 20.67C1.265 19.2013 1.25 18.7338 1.25 15C1.25 11.265 1.26625 10.7975 1.3325 9.3325C1.39875 7.8675 1.6325 6.8675 1.97125 5.9925C2.31715 5.0751 2.8589 4.24414 3.55875 3.5575C4.24505 2.85813 5.07559 2.3168 5.9925 1.97125C6.8675 1.6325 7.8675 1.4 9.33 1.3325H9.33125ZM20.5563 3.8075C19.1063 3.74125 18.6713 3.7275 15 3.7275C11.3288 3.7275 10.8938 3.74125 9.44375 3.8075C8.1025 3.86875 7.375 4.0925 6.89 4.28125C6.24875 4.53125 5.79 4.8275 5.30875 5.30875C4.85256 5.75256 4.50148 6.29285 4.28125 6.89C4.0925 7.375 3.86875 8.1025 3.8075 9.44375C3.74125 10.8938 3.7275 11.3288 3.7275 15C3.7275 18.6713 3.74125 19.1063 3.8075 20.5563C3.86875 21.8975 4.0925 22.625 4.28125 23.11C4.50125 23.7063 4.8525 24.2475 5.30875 24.6913C5.7525 25.1475 6.29375 25.4988 6.89 25.7188C7.375 25.9075 8.1025 26.1313 9.44375 26.1925C10.8938 26.2588 11.3275 26.2725 15 26.2725C18.6725 26.2725 19.1063 26.2588 20.5563 26.1925C21.8975 26.1313 22.625 25.9075 23.11 25.7188C23.7513 25.4688 24.21 25.1725 24.6913 24.6913C25.1475 24.2475 25.4988 23.7063 25.7188 23.11C25.9075 22.625 26.1313 21.8975 26.1925 20.5563C26.2588 19.1063 26.2725 18.6713 26.2725 15C26.2725 11.3288 26.2588 10.8938 26.1925 9.44375C26.1313 8.1025 25.9075 7.375 25.7188 6.89C25.4688 6.24875 25.1725 5.79 24.6913 5.30875C24.2474 4.85259 23.7071 4.50151 23.11 4.28125C22.625 4.0925 21.8975 3.86875 20.5563 3.8075ZM13.2438 19.2388C14.2246 19.647 15.3167 19.7021 16.3337 19.3947C17.3506 19.0872 18.2292 18.4361 18.8195 17.5528C19.4098 16.6695 19.6751 15.6086 19.5701 14.5514C19.465 13.4942 18.9963 12.5062 18.2438 11.7563C17.764 11.2768 17.184 10.9098 16.5454 10.6814C15.9068 10.4531 15.2255 10.3692 14.5506 10.4358C13.8757 10.5023 13.2239 10.7177 12.6423 11.0664C12.0606 11.4151 11.5634 11.8884 11.1866 12.4523C10.8098 13.0162 10.5627 13.6566 10.4631 14.3275C10.3636 14.9983 10.4139 15.6829 10.6107 16.3319C10.8074 16.9809 11.1456 17.5783 11.6009 18.0809C12.0562 18.5835 12.6173 18.979 13.2438 19.2388ZM10.0025 10.0025C10.6588 9.34622 11.4379 8.82563 12.2954 8.47045C13.1528 8.11528 14.0719 7.93247 15 7.93247C15.9281 7.93247 16.8472 8.11528 17.7046 8.47045C18.5621 8.82563 19.3412 9.34622 19.9975 10.0025C20.6538 10.6588 21.1744 11.4379 21.5296 12.2954C21.8847 13.1528 22.0675 14.0719 22.0675 15C22.0675 15.9281 21.8847 16.8472 21.5296 17.7046C21.1744 18.5621 20.6538 19.3412 19.9975 19.9975C18.6721 21.3229 16.8744 22.0675 15 22.0675C13.1256 22.0675 11.3279 21.3229 10.0025 19.9975C8.67708 18.6721 7.93247 16.8744 7.93247 15C7.93247 13.1256 8.67708 11.3279 10.0025 10.0025ZM23.635 8.985C23.7976 8.83159 23.9278 8.6471 24.0179 8.44247C24.1079 8.23783 24.156 8.01721 24.1593 7.79366C24.1625 7.57011 24.1209 7.34819 24.0369 7.14101C23.9528 6.93384 23.828 6.74564 23.67 6.58755C23.5119 6.42946 23.3237 6.3047 23.1165 6.22065C22.9093 6.1366 22.6874 6.09497 22.4638 6.09823C22.2403 6.10149 22.0197 6.14957 21.815 6.23962C21.6104 6.32967 21.4259 6.45987 21.2725 6.6225C20.9741 6.93879 20.8108 7.3589 20.8171 7.79366C20.8235 8.22842 20.999 8.6436 21.3064 8.95105C21.6139 9.25851 22.0291 9.43404 22.4638 9.44037C22.8986 9.44671 23.3187 9.28336 23.635 8.985Z" fill="currentColor"></path>
  </symbol>
  <symbol xmlns="http://www.w3.org/2000/svg" viewBox="0 0 24 24" id="ic_link">
    <circle cx="12" cy="12" r="11.5" stroke="currentColor" fill="none"></circle>
    <path d="M10.7363 15.7889L14.5258 11.9994L10.7363 8.20996" stroke="currentColor" stroke-linecap="round" stroke-linejoin="round" fill="none"></path>
  </symbol>
  <symbol xmlns="http://www.w3.org/2000/svg" viewBox="0 0 30 30" id="ic_vkontakte">
    <path fill-rule="evenodd" clip-rule="evenodd" d="M29.3125 8.185C29.52 7.5025 29.3125 7 28.3188 7H25.0375C24.2025 7 23.8175 7.43375 23.6087 7.9125C23.6087 7.9125 21.94 11.9075 19.5763 14.5025C18.8113 15.255 18.4638 15.4938 18.0463 15.4938C17.8375 15.4938 17.5238 15.255 17.5238 14.5713V8.185C17.5238 7.365 17.2938 7 16.5988 7H11.4388C10.9175 7 10.6037 7.38 10.6037 7.74125C10.6037 8.5175 11.7863 8.6975 11.9075 10.8825V15.63C11.9075 16.6713 11.7162 16.86 11.2987 16.86C10.1862 16.86 7.48 12.8462 5.87375 8.25375C5.5625 7.36 5.2475 7 4.40875 7H1.125C0.1875 7 0 7.43375 0 7.9125C0 8.765 1.1125 13 5.18125 18.6013C7.89375 22.4263 11.7125 24.5 15.1912 24.5C17.2775 24.5 17.535 24.04 17.535 23.2462V20.355C17.535 19.4338 17.7325 19.25 18.3938 19.25C18.8813 19.25 19.715 19.49 21.6625 21.3337C23.8875 23.52 24.2538 24.5 25.5063 24.5H28.7875C29.725 24.5 30.195 24.04 29.925 23.13C29.6275 22.225 28.565 20.9112 27.1563 19.3525C26.3913 18.465 25.2438 17.5088 24.895 17.03C24.4088 16.4163 24.5475 16.1425 24.895 15.5962C24.895 15.5962 28.895 10.0637 29.3112 8.185H29.3125Z" fill="currentColor"></path>
  </symbol>
  <symbol xmlns="http://www.w3.org/2000/svg" viewBox="0 0 30 30" id="ic_youtube">
    <path d="M29.3748 8.13409C29.2049 7.52813 28.874 6.97952 28.4173 6.54659C27.9477 6.10034 27.372 5.78113 26.7448 5.61909C24.3973 5.00034 14.9923 5.00034 14.9923 5.00034C11.0715 4.95573 7.15158 5.15193 3.25479 5.58784C2.62753 5.76186 2.053 6.0882 1.58229 6.53784C1.11979 6.98284 0.784795 7.53159 0.609795 8.13284C0.189411 10.3975 -0.0148401 12.697 -0.000205084 15.0003C-0.0152051 17.3016 0.188545 19.6003 0.609795 21.8678C0.781045 22.4666 1.11479 23.0128 1.57854 23.4541C2.04229 23.8953 2.61979 24.2141 3.25479 24.3828C5.63354 25.0003 14.9923 25.0003 14.9923 25.0003C18.9181 25.045 22.843 24.8488 26.7448 24.4128C27.372 24.2508 27.9477 23.9316 28.4173 23.4853C28.8798 23.0441 29.2085 22.4953 29.3735 21.8978C29.8049 19.634 30.0146 17.3336 29.9998 15.0291C30.0322 12.7148 29.8228 10.4035 29.3748 8.13284V8.13409ZM12.0023 19.2803V10.7216L19.8273 15.0016L12.0023 19.2803Z" fill="currentColor"></path>
  </symbol>
</svg>